IKResults
version=1
nRows=9
nColumns=63
inDegrees=yes

Units are S.I. units (second, meters, Newtons, ...)
If the header above contains a line with 'inDegrees', this indicates whether rotational values are in degrees (yes) or radians (no).

endheader
time	pelvis_tilt	pelvis_list	pelvis_rotation	pelvis_tx	pelvis_ty	pelvis_tz	hip_flexion_r	hip_adduction_r	hip_rotation_r	knee_angle_r	knee_angle_r_beta	ankle_angle_r	subtalar_angle_r	mtp_angle_r	hip_flexion_l	hip_adduction_l	hip_rotation_l	knee_angle_l	knee_angle_l_beta	ankle_angle_l	subtalar_angle_l	mtp_angle_l	L5_S1_Flex_Ext	L5_S1_Lat_Bending	L5_S1_axial_rotation	L4_L5_Flex_Ext	L4_L5_Lat_Bending	L4_L5_axial_rotation	L3_L4_Flex_Ext	L3_L4_Lat_Bending	L3_L4_axial_rotation	L2_L3_Flex_Ext	L2_L3_Lat_Bending	L2_L3_axial_rotation	L1_L2_Flex_Ext	L1_L2_Lat_Bending	L1_L2_axial_rotation	L1_T12_Flex_Ext	L1_T12_Lat_Bending	L1_T12_axial_rotation	Abs_r3	Abs_r2	Abs_r1	Abs_t1	Abs_t2	neck_flexion	neck_bending	neck_rotation	arm_flex_r	arm_add_r	arm_rot_r	elbow_flex_r	pro_sup_r	wrist_flex_r	wrist_dev_r	arm_flex_l	arm_add_l	arm_rot_l	elbow_flex_l	pro_sup_l	wrist_flex_l	wrist_dev_l
      4.03333333	    106.98085126	     -6.09211982	   -134.09838975	     -0.81656711	      0.17562293	      0.23346828	     34.17992799	      1.10669962	     33.29807713	     35.19848596	      0.61432947	      1.74224788	    -19.79091581	      0.00000000	     69.40789130	     -8.39319360	    -19.93073780	     58.54805692	      1.02185636	     -6.75479784	    -19.75245465	      0.00000000	     -0.08377105	     -3.31308361	      2.82238706	     -0.15557121	     -4.40640121	      2.99878626	     -0.13762745	     -8.05543150	      2.99878626	     -0.09574193	     -8.05543150	      2.46958868	     -0.07778979	     -6.75604011	      2.29318949	     -0.04786678	     -5.13196652	      2.11679030	     -0.59836821	    -37.47826447	     15.69727013	      0.00000000	      0.00000000	     25.90862678	     -4.47019292	    -26.90942539	      0.00000000	    -90.00000009	      0.00000000	     74.98724292	     89.99559364	      0.00000000	      0.00000000	     76.25788068	     24.22224990	     -6.67153717	     63.00742474	     89.99559364	      0.00000000	      0.00000000
      4.06666667	    105.81555821	     -4.38567963	   -131.07228705	     -0.81892305	      0.17704924	      0.23018383	     35.94844968	      2.85705488	     34.64186158	     38.18189438	      0.66639977	     -4.05282951	    -19.76721947	      0.00000000	     69.53948084	     -6.82073160	    -18.11146066	     56.64296674	      0.98860627	     -5.22345124	    -19.63002279	      0.00000000	     -0.14320815	     -3.14384343	      2.38787394	     -0.26595186	     -4.18131176	      2.53711606	     -0.23527668	     -7.64394091	      2.53711606	     -0.16367260	     -7.64394091	      2.08938970	     -0.13298309	     -6.41092552	      1.94014758	     -0.08182914	     -4.86981347	      1.79090546	     -1.02292153	    -35.56378564	     13.28063850	      0.00000000	      0.00000000	     25.44965667	     -8.95220437	    -32.62900922	      0.00000000	    -90.00000009	      0.00000000	     74.98737605	     89.99559364	      0.00000000	      0.00000000	     75.43535632	     24.47821539	     -6.53526454	     62.75306539	     89.99559364	      0.00000000	      0.00000000
      4.10000000	    104.33577001	     -2.97743414	   -128.07120371	     -0.82157732	      0.17838678	      0.22600151	     37.38675939	      4.79625999	     36.30114774	     41.01058771	      0.71576978	    -10.71358087	    -19.70602545	      0.00000000	     69.15536668	     -5.35834270	    -16.20750446	     54.53289965	      0.95177865	     -4.50202204	    -19.25867283	      0.00000000	     -0.25819049	     -2.96898383	      1.99782488	     -0.47948555	     -3.94874849	      2.12268893	     -0.42418115	     -7.21878728	      2.12268893	     -0.29508591	     -7.21878728	      1.74809677	     -0.23975568	     -6.05435182	      1.62323271	     -0.14753004	     -4.59895595	      1.49836866	     -1.84422882	    -33.58573885	     11.11130262	      0.00000000	      0.00000000	     24.78378465	    -12.69076288	    -37.28133814	      0.00000000	    -90.00000009	      0.00000000	     74.98747394	     89.99559364	      0.00000000	      0.00000000	     73.74845905	     24.53772020	     -5.93639802	     62.74967463	     89.99559364	      0.00000000	      0.00000000
      4.13333333	    102.79947757	     -2.00483079	   -125.12810937	     -0.82438077	      0.17943883	      0.22133327	     38.37535317	      6.38270831	     37.42237750	     43.20797802	      0.75412148	    -16.84176997	    -19.55818987	      0.00000000	     68.22738345	     -4.16425334	    -14.63237070	     52.33148515	      0.91335672	     -4.31405233	    -17.06579715	      0.00000000	     -0.41041759	     -2.81886269	      1.64665174	     -0.76218650	     -3.74908738	      1.74956748	     -0.67427506	     -6.85378274	      1.74956748	     -0.46906626	     -6.85378274	      1.44082028	     -0.38111377	     -5.74822480	      1.33790454	     -0.23451261	     -4.36641831	      1.23498881	     -2.93157179	    -31.88753852	      9.15818301	      0.00000000	      0.00000000	     24.08595576	    -15.28050380	    -40.58136917	      0.00000000	    -90.00000009	      0.00000000	     74.98755696	     89.99559364	      0.00000000	      0.00000000	     71.37409944	     24.29164617	     -4.90450984	     62.95197586	     89.99559364	      0.00000000	      0.00000000
      4.16666667	    101.49222478	     -1.49070217	   -122.52188295	     -0.82704886	      0.17978929	      0.21606471	     39.05151362	      7.43363037	     37.94960243	     44.73273468	      0.78073350	    -21.81438599	    -19.21545449	      0.00000000	     66.83376056	     -3.67682706	    -14.06783764	     50.18725517	      0.87593285	     -4.40482537	    -11.75549948	      0.00000000	     -0.56775739	     -2.72822529	      1.36979716	     -1.05438225	     -3.62853964	      1.45540948	     -0.93276861	     -6.63340698	      1.45540948	     -0.64888992	     -6.63340698	      1.19857252	     -0.52721951	     -5.56339702	      1.11296019	     -0.32441657	     -4.22602098	      1.02734787	     -4.05543426	    -30.86223016	      7.61840088	      0.00000000	      0.00000000	     23.61954636	    -16.21272154	    -42.10982954	      0.00000000	    -90.00000009	      0.00000000	     74.98759767	     89.99559364	      0.00000000	      0.00000000	     68.58701656	     23.80164680	     -3.74180697	     63.21711830	     89.99559364	      0.00000000	      0.00000000
      4.20000000	    100.49025491	     -1.63227381	   -120.37572525	     -0.82937262	      0.17912640	      0.21066135	     39.28598869	      7.87976234	     38.07459484	     46.00298208	      0.80290350	    -24.23910009	    -17.91218792	      0.00000000	     64.81712435	     -3.82093120	    -14.73663304	     48.24178551	      0.84197799	     -4.59435837	     -4.50165046	      0.00000000	     -0.75560272	     -2.71891061	      1.21977990	     -1.40322982	     -3.61615111	      1.29601614	     -1.24137971	     -6.61075926	      1.29601614	     -0.86357835	     -6.61075926	      1.06730741	     -0.70165269	     -5.54440251	      0.99107117	     -0.43175140	     -4.21159253	      0.91483492	     -5.39719469	    -30.75686059	      6.78404987	      0.00000000	      0.00000000	     22.98340108	    -15.66853441	    -42.67753371	      0.00000000	    -90.00000009	      0.00000000	     74.98771349	     89.99559364	      0.00000000	      0.00000000	     65.91050586	     23.29479897	     -2.69147737	     63.15493059	     89.99559364	      0.00000000	      0.00000000
      4.23333333	    100.20641935	     -1.85581037	   -118.51748051	     -0.83085297	      0.17828231	      0.20553421	     39.78086476	      7.62287589	     38.03800186	     46.99967953	      0.82029916	    -25.24012644	    -15.72538123	      0.00000000	     62.96527272	     -3.73830575	    -15.79462538	     46.36454875	      0.80921403	     -5.93375260	      0.55178660	      0.00000000	     -0.87084746	     -2.80048174	      1.14953517	     -1.61725082	     -3.72464071	      1.22138111	     -1.43071530	     -6.80909129	      1.22138111	     -0.99529156	     -6.80909129	      1.00584327	     -0.80866895	     -5.71074236	      0.93399732	     -0.49760224	     -4.33794621	      0.86215138	     -6.22037634	    -31.67960949	      6.39336974	      0.00000000	      0.00000000	     22.13460836	    -13.35469261	    -42.04209710	      0.00000000	    -90.00000009	      0.00000000	     74.98776482	     89.99559364	      0.00000000	      0.00000000	     63.18415970	     22.99122881	     -2.06414164	     62.98050418	     89.99559364	      0.00000000	      0.00000000
      4.26666667	    100.50073444	     -2.17523559	   -117.05979375	     -0.83198149	      0.17603802	      0.20090469	     40.22637710	      7.09145116	     38.28486457	     47.79238457	      0.83413447	    -25.76317886	    -14.43089013	      0.00000000	     61.09206696	     -3.78810414	    -17.37109502	     44.85705942	      0.78290338	     -7.01195274	      5.05452503	      0.00000000	     -0.91909585	     -2.96556887	      1.21041003	     -1.70685290	     -3.94420659	      1.28606066	     -1.50998257	     -7.21048414	      1.28606066	     -1.05043465	     -7.21048414	      1.05910878	     -0.85347241	     -6.04738803	      0.98345815	     -0.52517137	     -4.59366617	      0.90780752	     -6.56500975	    -33.54710813	      6.73193746	      0.00000000	      0.00000000	     21.14816287	     -9.06125761	    -39.52319401	      0.00000000	    -90.00000009	      0.00000000	     74.98783060	     89.99559364	      0.00000000	      0.00000000	     60.56341390	     22.82981284	     -1.75584064	     62.46361208	     89.99559364	      0.00000000	      0.00000000
      4.30000000	    101.42341567	     -1.83719584	   -115.66934736	     -0.83248648	      0.17232146	      0.19792410	     41.19507633	      6.38856954	     38.58132266	     48.31277578	      0.84321701	    -26.22383332	    -14.60354041	      0.00000000	     59.88091755	     -3.76869610	    -18.96153990	     43.74537105	      0.76350076	     -7.49060144	      8.98804396	      0.00000000	     -0.78485209	     -3.17660816	      1.35922982	     -1.45754882	     -4.22488886	      1.44418169	     -1.28943350	     -7.72360509	      1.44418169	     -0.89700746	     -7.72360509	      1.18932610	     -0.72881365	     -6.47773937	      1.10437423	     -0.44846449	     -4.92056605	      1.01942237	     -5.60612001	    -35.93442687	      7.55962851	      0.00000000	      0.00000000	     19.71378189	     -2.94478892	    -34.49713702	      0.00000000	    -90.00000009	      0.00000000	     74.98793107	     89.99559364	      0.00000000	      0.00000000	     57.53812725	     22.72639731	     -1.62895303	     62.01434019	     89.99559364	      0.00000000	      0.00000000
